<?xml version="1.0" standalone="no"?><!DOCTYPE svg PUBLIC "-//W3C//DTD SVG 1.1//EN" "http://www.w3.org/Graphics/SVG/1.1/DTD/svg11.dtd"><svg t="1698480549497" class="icon" viewBox="0 0 1024 1024" version="1.1" xmlns="http://www.w3.org/2000/svg" p-id="4492" xmlns:xlink="http://www.w3.org/1999/xlink" width="200" height="200"><path d="M936.672 193.216l-226.88-64c-8.704-2.528-18.112-1.12-25.824 3.776-7.68 4.864-12.896 12.736-14.432 21.728C656.576 231.936 590.272 288 512 288c-30.56 0-56.16-13.12-79.296-27.296-15.04-9.216-34.752-4.512-44 10.56s-4.512 34.752 10.56 44C428.896 333.44 465.44 352 512 352c97.664 0 181.952-62.272 212.096-152.288L896 248.224l0 224.736-121.728-24.352c-9.408-1.888-19.168 0.576-26.56 6.624C740.32 461.344 736 470.4 736 480l0 352c0 17.664-14.336 32-32 32L320 864c-17.632 0-32-14.336-32-32L288 448c0-9.6-4.288-18.656-11.712-24.736-7.424-6.08-17.152-8.576-26.56-6.624L128 440.96 128 248.128l200.8-57.376c16.992-4.864 26.816-22.56 21.984-39.552-4.832-16.96-22.56-26.816-39.552-21.984l-224 64C73.472 197.152 64 209.728 64 224l0 256c0 9.6 4.288 18.656 11.712 24.736 7.392 6.08 17.152 8.512 26.56 6.624L224 487.04 224 832c0 52.928 43.072 96 96 96l384 0c52.928 0 96-43.072 96-96l0-312.96 121.728 24.352c9.44 1.92 19.2-0.544 26.56-6.624C955.68 530.656 960 521.6 960 512L960 224C960 209.664 950.464 197.088 936.672 193.216z" fill="#5E6570" p-id="4493"></path><path d="M320 768c0 17.696 14.336 32 32 32l320 0c17.696 0 32-14.304 32-32s-14.304-32-32-32L352 736C334.336 736 320 750.304 320 768z" fill="#5E6570" p-id="4494"></path></svg>