<svg t="1710074839222" class="icon" viewBox="0 0 1024 1024" version="1.1" xmlns="http://www.w3.org/2000/svg" p-id="13573" width="200" height="200"><path d="M731.4432 731.4432h48.7424v48.7424h-48.7424zM682.6496 780.1856h48.7936v48.7424h-48.7936zM926.464 780.1856h48.7936v48.7424h-48.7936zM877.7216 828.928h48.7424v48.7936h-48.7424z" fill="#012777" p-id="13574"></path><path d="M877.7216 780.1856h48.7424v48.7424h-48.7424z" fill="#375AA4" p-id="13575"></path><path d="M877.7216 731.4432h48.7424v48.7424h-48.7424zM828.928 877.7216h48.7936v48.7424h-48.7936z" fill="#012777" p-id="13576"></path><path d="M828.928 828.928h48.7936v48.7936h-48.7936z" fill="#375AA4" p-id="13577"></path><path d="M828.928 780.1856h48.7936v48.7424h-48.7936z" fill="#A2D8EA" p-id="13578"></path><path d="M828.928 731.4432h48.7936v48.7424h-48.7936z" fill="#A2D8EA" p-id="13579"></path><path d="M828.928 682.6496h48.7936v48.7936h-48.7936zM828.928 536.3712h48.7936v48.7936h-48.7936zM828.928 487.6288h48.7936v48.7424h-48.7936zM828.928 438.8352h48.7936v48.7936h-48.7936zM828.928 390.0928h48.7936v48.7424h-48.7936zM828.928 341.3504h48.7936v48.7424h-48.7936zM828.928 292.5568h48.7936v48.7936h-48.7936zM828.928 243.8144h48.7936v48.7424h-48.7936zM780.1856 926.464h48.7424v48.7936h-48.7424z" fill="#012777" p-id="13580"></path><path d="M780.1856 877.7216h48.7424v48.7424h-48.7424zM780.1856 828.928h48.7424v48.7936h-48.7424z" fill="#375AA4" p-id="13581"></path><path d="M780.1856 780.1856h48.7424v48.7424h-48.7424z" fill="#A2D8EA" p-id="13582"></path><path d="M780.1856 731.4432h48.7424v48.7424h-48.7424zM780.1856 585.1648h48.7424v48.7424h-48.7424z" fill="#012777" p-id="13583"></path><path d="M780.1856 536.3712h48.7424v48.7936h-48.7424zM780.1856 487.6288h48.7424v48.7424h-48.7424zM780.1856 438.8352h48.7424v48.7936h-48.7424zM780.1856 390.0928h48.7424v48.7424h-48.7424zM780.1856 341.3504h48.7424v48.7424h-48.7424zM780.1856 292.5568h48.7424v48.7936h-48.7424zM780.1856 243.8144h48.7424v48.7424h-48.7424z" fill="#DEE6FC" p-id="13584"></path><path d="M780.1856 195.072h48.7424v48.7424h-48.7424zM731.4432 877.7216h48.7424v48.7424h-48.7424z" fill="#012777" p-id="13585"></path><path d="M731.4432 828.928h48.7424v48.7936h-48.7424zM731.4432 780.1856h48.7424v48.7424h-48.7424z" fill="#A2D8EA" p-id="13586"></path><path d="M731.4432 633.9072h48.7424v48.7424h-48.7424z" fill="#012777" p-id="13587"></path><path d="M731.4432 585.1648h48.7424v48.7424h-48.7424z" fill="#DEE6FC" p-id="13588"></path><path d="M731.4432 536.3712h48.7424v48.7936h-48.7424zM731.4432 487.6288h48.7424v48.7424h-48.7424zM731.4432 438.8352h48.7424v48.7936h-48.7424zM731.4432 390.0928h48.7424v48.7424h-48.7424zM731.4432 341.3504h48.7424v48.7424h-48.7424zM731.4432 292.5568h48.7424v48.7936h-48.7424zM731.4432 243.8144h48.7424v48.7424h-48.7424z" fill="#DD75A1" p-id="13589"></path><path d="M731.4432 195.072h48.7424v48.7424h-48.7424z" fill="#DEE6FC" p-id="13590"></path><path d="M731.4432 146.2784h48.7424v48.7936h-48.7424zM682.6496 828.928h48.7936v48.7936h-48.7936zM682.6496 633.9072h48.7936v48.7424h-48.7936z" fill="#012777" p-id="13591"></path><path d="M682.6496 585.1648h48.7936v48.7424h-48.7936z" fill="#DEE6FC" p-id="13592"></path><path d="M682.6496 536.3712h48.7936v48.7936h-48.7936zM682.6496 487.6288h48.7936v48.7424h-48.7936zM682.6496 438.8352h48.7936v48.7936h-48.7936z" fill="#DD75A1" p-id="13593"></path><path d="M682.6496 390.0928h48.7936v48.7424h-48.7936z" fill="#012777" p-id="13594"></path><path d="M682.6496 341.3504h48.7936v48.7424h-48.7936zM682.6496 292.5568h48.7936v48.7936h-48.7936zM682.6496 243.8144h48.7936v48.7424h-48.7936z" fill="#DD75A1" p-id="13595"></path><path d="M682.6496 195.072h48.7936v48.7424h-48.7936z" fill="#DEE6FC" p-id="13596"></path><path d="M682.6496 146.2784h48.7936v48.7936h-48.7936zM633.9072 682.6496h48.7424v48.7936h-48.7424z" fill="#012777" p-id="13597"></path><path d="M633.9072 633.9072h48.7424v48.7424h-48.7424z" fill="#DEE6FC" p-id="13598"></path><path d="M633.9072 585.1648h48.7424v48.7424h-48.7424zM633.9072 536.3712h48.7424v48.7936h-48.7424zM633.9072 487.6288h48.7424v48.7424h-48.7424z" fill="#DD75A1" p-id="13599"></path><path d="M633.9072 438.8352h48.7424v48.7936h-48.7424z" fill="#012777" p-id="13600"></path><path d="M633.9072 390.0928h48.7424v48.7424h-48.7424z" fill="#DEE6FC" p-id="13601"></path><path d="M633.9072 341.3504h48.7424v48.7424h-48.7424z" fill="#012777" p-id="13602"></path><path d="M633.9072 292.5568h48.7424v48.7936h-48.7424zM633.9072 243.8144h48.7424v48.7424h-48.7424z" fill="#DD75A1" p-id="13603"></path><path d="M633.9072 195.072h48.7424v48.7424h-48.7424z" fill="#DD75A1" p-id="13604"></path><path d="M633.9072 146.2784h48.7424v48.7936h-48.7424z" fill="#DEE6FC" p-id="13605"></path><path d="M633.9072 97.536h48.7424v48.7424h-48.7424zM585.1648 682.6496h48.7424v48.7936h-48.7424z" fill="#012777" p-id="13606"></path><path d="M585.1648 633.9072h48.7424v48.7424h-48.7424z" fill="#DEE6FC" p-id="13607"></path><path d="M585.1648 585.1648h48.7424v48.7424h-48.7424zM585.1648 536.3712h48.7424v48.7936h-48.7424zM585.1648 487.6288h48.7424v48.7424h-48.7424z" fill="#DD75A1" p-id="13608"></path><path d="M585.1648 438.8352h48.7424v48.7936h-48.7424z" fill="#012777" p-id="13609"></path><path d="M585.1648 390.0928h48.7424v48.7424h-48.7424z" fill="#DEE6FC" p-id="13610"></path><path d="M585.1648 341.3504h48.7424v48.7424h-48.7424z" fill="#012777" p-id="13611"></path><path d="M585.1648 292.5568h48.7424v48.7936h-48.7424zM585.1648 243.8144h48.7424v48.7424h-48.7424z" fill="#DD75A1" p-id="13612"></path><path d="M585.1648 195.072h48.7424v48.7424h-48.7424z" fill="#DD75A1" p-id="13613"></path><path d="M585.1648 146.2784h48.7424v48.7936h-48.7424z" fill="#DEE6FC" p-id="13614"></path><path d="M585.1648 97.536h48.7424v48.7424h-48.7424zM536.3712 731.4432h48.7936v48.7424h-48.7936z" fill="#012777" p-id="13615"></path><path d="M536.3712 682.6496h48.7936v48.7936h-48.7936z" fill="#DEE6FC" p-id="13616"></path><path d="M536.3712 633.9072h48.7936v48.7424h-48.7936zM536.3712 585.1648h48.7936v48.7424h-48.7936z" fill="#DD75A1" p-id="13617"></path><path d="M536.3712 536.3712h48.7936v48.7936h-48.7936zM536.3712 487.6288h48.7936v48.7424h-48.7936z" fill="#012777" p-id="13618"></path><path d="M536.3712 438.8352h48.7936v48.7936h-48.7936z" fill="#DEE6FC" p-id="13619"></path><path d="M536.3712 390.0928h48.7936v48.7424h-48.7936z" fill="#DD75A1" p-id="13620"></path><path d="M536.3712 341.3504h48.7936v48.7424h-48.7936z" fill="#DEE6FC" p-id="13621"></path><path d="M536.3712 292.5568h48.7936v48.7936h-48.7936zM536.3712 243.8144h48.7936v48.7424h-48.7936z" fill="#012777" p-id="13622"></path><path d="M536.3712 195.072h48.7936v48.7424h-48.7936zM536.3712 146.2784h48.7936v48.7936h-48.7936z" fill="#DD75A1" p-id="13623"></path><path d="M536.3712 97.536h48.7936v48.7424h-48.7936z" fill="#DEE6FC" p-id="13624"></path><path d="M536.3712 48.7424h48.7936v48.7936h-48.7936zM487.6288 731.4432h48.7424v48.7424h-48.7424z" fill="#012777" p-id="13625"></path><path d="M487.6288 682.6496h48.7424v48.7936h-48.7424z" fill="#DEE6FC" p-id="13626"></path><path d="M487.6288 633.9072h48.7424v48.7424h-48.7424z" fill="#DD75A1" p-id="13627"></path><path d="M487.6288 585.1648h48.7424v48.7424h-48.7424z" fill="#012777" p-id="13628"></path><path d="M487.6288 536.3712h48.7424v48.7936h-48.7424zM487.6288 487.6288h48.7424v48.7424h-48.7424z" fill="#DEE6FC" p-id="13629"></path><path d="M487.6288 438.8352h48.7424v48.7936h-48.7424zM487.6288 390.0928h48.7424v48.7424h-48.7424zM487.6288 341.3504h48.7424v48.7424h-48.7424z" fill="#DD75A1" p-id="13630"></path><path d="M487.6288 292.5568h48.7424v48.7936h-48.7424zM487.6288 243.8144h48.7424v48.7424h-48.7424z" fill="#DEE6FC" p-id="13631"></path><path d="M487.6288 195.072h48.7424v48.7424h-48.7424z" fill="#012777" p-id="13632"></path><path d="M487.6288 146.2784h48.7424v48.7936h-48.7424z" fill="#DD75A1" p-id="13633"></path><path d="M487.6288 97.536h48.7424v48.7424h-48.7424z" fill="#DEE6FC" p-id="13634"></path><path d="M487.6288 48.7424h48.7424v48.7936h-48.7424zM438.8352 731.4432h48.7936v48.7424h-48.7936z" fill="#012777" p-id="13635"></path><path d="M438.8352 682.6496h48.7936v48.7936h-48.7936z" fill="#DEE6FC" p-id="13636"></path><path d="M438.8352 633.9072h48.7936v48.7424h-48.7936zM438.8352 585.1648h48.7936v48.7424h-48.7936z" fill="#DD75A1" p-id="13637"></path><path d="M438.8352 536.3712h48.7936v48.7936h-48.7936zM438.8352 487.6288h48.7936v48.7424h-48.7936z" fill="#012777" p-id="13638"></path><path d="M438.8352 438.8352h48.7936v48.7936h-48.7936z" fill="#DEE6FC" p-id="13639"></path><path d="M438.8352 390.0928h48.7936v48.7424h-48.7936z" fill="#DD75A1" p-id="13640"></path><path d="M438.8352 341.3504h48.7936v48.7424h-48.7936z" fill="#DEE6FC" p-id="13641"></path><path d="M438.8352 292.5568h48.7936v48.7936h-48.7936zM438.8352 243.8144h48.7936v48.7424h-48.7936z" fill="#012777" p-id="13642"></path><path d="M438.8352 195.072h48.7936v48.7424h-48.7936zM438.8352 146.2784h48.7936v48.7936h-48.7936z" fill="#DD75A1" p-id="13643"></path><path d="M438.8352 97.536h48.7936v48.7424h-48.7936z" fill="#DEE6FC" p-id="13644"></path><path d="M438.8352 48.7424h48.7936v48.7936h-48.7936zM390.0928 682.6496h48.7424v48.7936h-48.7424z" fill="#012777" p-id="13645"></path><path d="M390.0928 633.9072h48.7424v48.7424h-48.7424z" fill="#DEE6FC" p-id="13646"></path><path d="M390.0928 585.1648h48.7424v48.7424h-48.7424zM390.0928 536.3712h48.7424v48.7936h-48.7424zM390.0928 487.6288h48.7424v48.7424h-48.7424z" fill="#DD75A1" p-id="13647"></path><path d="M390.0928 438.8352h48.7424v48.7936h-48.7424z" fill="#012777" p-id="13648"></path><path d="M390.0928 390.0928h48.7424v48.7424h-48.7424z" fill="#DEE6FC" p-id="13649"></path><path d="M390.0928 341.3504h48.7424v48.7424h-48.7424z" fill="#012777" p-id="13650"></path><path d="M390.0928 292.5568h48.7424v48.7936h-48.7424zM390.0928 243.8144h48.7424v48.7424h-48.7424z" fill="#DD75A1" p-id="13651"></path><path d="M390.0928 195.072h48.7424v48.7424h-48.7424z" fill="#DD75A1" p-id="13652"></path><path d="M390.0928 146.2784h48.7424v48.7936h-48.7424z" fill="#DEE6FC" p-id="13653"></path><path d="M390.0928 97.536h48.7424v48.7424h-48.7424zM341.3504 682.6496h48.7424v48.7936h-48.7424z" fill="#012777" p-id="13654"></path><path d="M341.3504 633.9072h48.7424v48.7424h-48.7424z" fill="#DEE6FC" p-id="13655"></path><path d="M341.3504 585.1648h48.7424v48.7424h-48.7424zM341.3504 536.3712h48.7424v48.7936h-48.7424zM341.3504 487.6288h48.7424v48.7424h-48.7424z" fill="#DD75A1" p-id="13656"></path><path d="M341.3504 438.8352h48.7424v48.7936h-48.7424z" fill="#012777" p-id="13657"></path><path d="M341.3504 390.0928h48.7424v48.7424h-48.7424z" fill="#DEE6FC" p-id="13658"></path><path d="M341.3504 341.3504h48.7424v48.7424h-48.7424z" fill="#012777" p-id="13659"></path><path d="M341.3504 292.5568h48.7424v48.7936h-48.7424zM341.3504 243.8144h48.7424v48.7424h-48.7424z" fill="#DD75A1" p-id="13660"></path><path d="M341.3504 195.072h48.7424v48.7424h-48.7424z" fill="#DD75A1" p-id="13661"></path><path d="M341.3504 146.2784h48.7424v48.7936h-48.7424z" fill="#DEE6FC" p-id="13662"></path><path d="M341.3504 97.536h48.7424v48.7424h-48.7424zM292.5568 828.928h48.7936v48.7936h-48.7936zM292.5568 780.1856h48.7936v48.7424h-48.7936zM292.5568 633.9072h48.7936v48.7424h-48.7936z" fill="#012777" p-id="13663"></path><path d="M292.5568 585.1648h48.7936v48.7424h-48.7936z" fill="#DEE6FC" p-id="13664"></path><path d="M292.5568 536.3712h48.7936v48.7936h-48.7936zM292.5568 487.6288h48.7936v48.7424h-48.7936zM292.5568 438.8352h48.7936v48.7936h-48.7936z" fill="#DD75A1" p-id="13665"></path><path d="M292.5568 390.0928h48.7936v48.7424h-48.7936z" fill="#012777" p-id="13666"></path><path d="M292.5568 341.3504h48.7936v48.7424h-48.7936zM292.5568 292.5568h48.7936v48.7936h-48.7936zM292.5568 243.8144h48.7936v48.7424h-48.7936z" fill="#DD75A1" p-id="13667"></path><path d="M292.5568 195.072h48.7936v48.7424h-48.7936z" fill="#DEE6FC" p-id="13668"></path><path d="M292.5568 146.2784h48.7936v48.7936h-48.7936zM243.8144 877.7216h48.7424v48.7424h-48.7424z" fill="#012777" p-id="13669"></path><path d="M243.8144 828.928h48.7424v48.7936h-48.7424zM243.8144 780.1856h48.7424v48.7424h-48.7424z" fill="#A2D8EA" p-id="13670"></path><path d="M243.8144 731.4432h48.7424v48.7424h-48.7424zM243.8144 633.9072h48.7424v48.7424h-48.7424z" fill="#012777" p-id="13671"></path><path d="M243.8144 585.1648h48.7424v48.7424h-48.7424z" fill="#DEE6FC" p-id="13672"></path><path d="M243.8144 536.3712h48.7424v48.7936h-48.7424zM243.8144 487.6288h48.7424v48.7424h-48.7424zM243.8144 438.8352h48.7424v48.7936h-48.7424zM243.8144 390.0928h48.7424v48.7424h-48.7424zM243.8144 341.3504h48.7424v48.7424h-48.7424zM243.8144 292.5568h48.7424v48.7936h-48.7424zM243.8144 243.8144h48.7424v48.7424h-48.7424z" fill="#DD75A1" p-id="13673"></path><path d="M243.8144 195.072h48.7424v48.7424h-48.7424z" fill="#DEE6FC" p-id="13674"></path><path d="M243.8144 146.2784h48.7424v48.7936h-48.7424zM195.072 926.464h48.7424v48.7936H195.072z" fill="#012777" p-id="13675"></path><path d="M195.072 877.7216h48.7424v48.7424H195.072zM195.072 828.928h48.7424v48.7936H195.072z" fill="#375AA4" p-id="13676"></path><path d="M195.072 780.1856h48.7424v48.7424H195.072z" fill="#A2D8EA" p-id="13677"></path><path d="M195.072 731.4432h48.7424v48.7424H195.072zM195.072 585.1648h48.7424v48.7424H195.072z" fill="#012777" p-id="13678"></path><path d="M195.072 536.3712h48.7424v48.7936H195.072zM195.072 487.6288h48.7424v48.7424H195.072zM195.072 438.8352h48.7424v48.7936H195.072zM195.072 390.0928h48.7424v48.7424H195.072zM195.072 341.3504h48.7424v48.7424H195.072zM195.072 292.5568h48.7424v48.7936H195.072zM195.072 243.8144h48.7424v48.7424H195.072z" fill="#DEE6FC" p-id="13679"></path><path d="M195.072 195.072h48.7424v48.7424H195.072zM146.2784 877.7216h48.7936v48.7424h-48.7936z" fill="#012777" p-id="13680"></path><path d="M146.2784 828.928h48.7936v48.7936h-48.7936z" fill="#375AA4" p-id="13681"></path><path d="M146.2784 780.1856h48.7936v48.7424h-48.7936z" fill="#A2D8EA" p-id="13682"></path><path d="M146.2784 731.4432h48.7936v48.7424h-48.7936z" fill="#A2D8EA" p-id="13683"></path><path d="M146.2784 682.6496h48.7936v48.7936h-48.7936zM146.2784 536.3712h48.7936v48.7936h-48.7936zM146.2784 487.6288h48.7936v48.7424h-48.7936zM146.2784 438.8352h48.7936v48.7936h-48.7936zM146.2784 390.0928h48.7936v48.7424h-48.7936zM146.2784 341.3504h48.7936v48.7424h-48.7936zM146.2784 292.5568h48.7936v48.7936h-48.7936zM146.2784 243.8144h48.7936v48.7424h-48.7936zM97.536 828.928h48.7424v48.7936h-48.7424z" fill="#012777" p-id="13684"></path><path d="M97.536 780.1856h48.7424v48.7424h-48.7424z" fill="#375AA4" p-id="13685"></path><path d="M97.536 731.4432h48.7424v48.7424h-48.7424zM48.7424 780.1856h48.7936v48.7424H48.7424z" fill="#012777" p-id="13686"></path></svg>