<svg t="1710074414789" class="icon" viewBox="0 0 1024 1024" version="1.1" xmlns="http://www.w3.org/2000/svg" p-id="8642" id="mx_n_1710074414790" width="200" height="200"><path d="M1018.02804 378.9L849.22804 82.4C840.32804 66.8 822.92804 57 804.02804 57H220.02804c-18.9 0-36.3 9.8-45.2 25.4L6.02804 378.9c-9.8 17.2-7.5 38.2 5.8 53.2l460.8 517.7c10.2 11.5 24.8 17.2 39.3 17.2s29.1-5.7 39.3-17.2L1012.02804 432.1c13.5-15 15.8-36 6-53.2zM512.02804 865.6L94.32804 396.3l144.6-253.9h546.2l144.6 254L512.02804 865.6z" fill="#13227a" p-id="8643" data-spm-anchor-id="a313x.search_index.0.i29.41413a81Pz1Mgr" class=""></path><path d="M638.72804 316.7l-126 136.6-127.8-135c-16.2-17.1-43.2-17.9-60.3-1.6-17.1 16.2-17.8 43.2-1.7 60.3l159.2 168.1c8.1 8.5 19.3 13.3 31 13.3h0.3c11.8-0.1 23.1-5.1 31.1-13.8l156.9-170.1c16-17.3 14.9-44.3-2.4-60.3-17.3-15.9-44.3-14.9-60.3 2.5z" fill="#d4237a" p-id="8644" data-spm-anchor-id="a313x.search_index.0.i30.41413a81Pz1Mgr" class="selected"></path></svg>