<svg t="1710074192186" class="icon" viewBox="0 0 1024 1024" version="1.1" xmlns="http://www.w3.org/2000/svg" p-id="2089" id="mx_n_1710074192186" data-spm-anchor-id="a313x.search_index.0.i7.41413a81Pz1Mgr" width="200" height="200"><path d="M689.226761 1022.462081c-10.906262 0-21.812524-6.816414-27.265656-14.996111l-68.164139-118.605601c-17.722676 2.726566-35.445352 1.363283-51.804745-2.726566l-24.53909-6.816414c-6.816414-2.726566-24.53909-2.726566-32.718786 0l-24.53909 6.816414c-17.722676 5.453131-36.808635 5.453131-54.531311 2.726566l-68.164139 119.968884c-5.453131 9.542979-14.996111 14.996111-25.902373 14.99611-10.906262 1.363283-20.449242-5.453131-27.265655-13.632827l-54.531311-84.523532H113.92143c-10.906262 0-20.449242-5.453131-25.902373-14.996111-5.453131-10.906262-5.453131-23.175807 0-32.718786l83.160249-145.871257v-1.363283l-8.179696-24.53909c-2.726566-6.816414-13.632828-23.175807-19.085959-27.265655l-19.085959-16.359394c-32.718787-27.265655-50.441463-76.343835-44.988331-119.968884l4.089848-25.902373c1.363283-8.179697-1.363283-25.902373-4.089848-34.082069l-9.54298-24.53909c-16.359393-39.5352-9.542979-91.339946 14.996111-126.785298l14.99611-20.449241c4.089848-5.453131 10.906262-24.53909 12.269545-31.355504l2.726566-25.902373c4.089848-43.625049 32.718787-85.886815 70.890704-104.972774l23.175807-10.906262c6.816414-2.726566 20.449242-16.359393 24.53909-21.812524l13.632828-21.812525c23.175807-36.808635 69.527421-61.347725 111.789187-59.984442l25.902373 1.363283c8.179697 0 24.53909-4.089848 31.355504-8.179697l21.812524-12.269544c36.808635-21.812524 89.976663-21.812524 126.785298 0l21.812525 10.906262c6.816414 4.089848 24.53909 8.179697 31.355503 8.179696l25.902373-1.363282c42.261766-1.363283 88.61338 23.175807 111.789188 59.984442l13.632827 21.812524c4.089848 6.816414 17.722676 19.085959 24.53909 21.812524l23.175807 10.906263c38.171918 19.085959 68.164139 62.711008 70.890705 104.972773l2.726565 25.902373c1.363283 8.179697 6.816414 25.902373 12.269545 31.355504l14.996111 20.449241c24.53909 34.082069 31.355504 87.250098 14.99611 126.785298l-9.542979 24.53909c-2.726566 6.816414-5.453131 25.902373-4.089848 34.08207l4.089848 25.902372c6.816414 42.261766-12.269545 91.339946-44.988332 119.968885L859.637107 677.551539c-5.453131 5.453131-16.359393 20.449242-19.085958 27.265655l-8.179697 25.902373c0 1.363283-1.363283 4.089848-1.363283 5.453131l81.796967 141.781409c5.453131 9.542979 5.453131 21.812524 0 29.992221s-14.996111 14.996111-25.902373 14.99611h-115.879036l-54.531311 84.523532c-6.816414 9.542979-16.359393 14.996111-27.265655 14.996111z m-79.070401-200.402568c10.906262 0 20.449242 5.453131 27.265655 14.99611l54.531311 95.429795 36.808635-55.894594c5.453131-8.179697 14.996111-13.632828 25.902373-13.632828H832.371452l-62.711008-110.425905c-5.453131-9.542979-5.453131-21.812524 0-31.355503 2.726566-4.089848 4.089848-6.816414 5.453131-10.906263l8.179697-24.53909c5.453131-17.722676 23.175807-42.261766 36.808635-54.531311l19.085959-16.359393c16.359393-13.632828 27.265655-42.261766 23.175807-64.07429l-2.726566-25.902373c-2.726566-17.722676 1.363283-47.714897 8.179697-65.437573l9.54298-24.53909c8.179697-20.449242 4.089848-50.441463-8.179697-68.164139l-14.996111-20.449241c-10.906262-14.996111-21.812524-42.261766-23.175807-61.347725l-2.726565-25.902373c-1.363283-21.812524-19.085959-46.351614-38.171918-55.894594l-23.175807-12.269545c-16.359393-8.179697-38.171918-28.628938-49.07818-43.625048l-13.632828-21.812525c-10.906262-17.722676-36.808635-31.355504-58.621159-31.355504l-25.902373 1.363283c-19.085959 0-47.714897-6.816414-64.07429-16.359393l-21.812525-12.269545c-17.722676-10.906262-47.714897-10.906262-65.437573 0l-21.812524 12.269545c-16.359393 9.542979-44.988332 16.359393-64.074291 14.99611l-25.902372-1.363282c-21.812524-1.363283-46.351614 13.632828-58.62116 31.355503l-13.632827 21.812525c-9.542979 16.359393-32.718787 35.445352-49.07818 43.625049l-23.175807 10.906262c-19.085959 9.542979-35.445352 34.082069-38.171918 55.894594l-2.726566 25.902372c-1.363283 19.085959-12.269545 46.351614-23.175807 61.347725l-13.632827 24.53909c-12.269545 17.722676-16.359393 47.714897-8.179697 68.164139l9.542979 24.53909c6.816414 17.722676 10.906262 47.714897 8.179697 65.437573l-4.089848 25.902373c-2.726566 20.449242 8.179697 49.07818 24.53909 62.711007l19.085958 16.359393c13.632828 12.269545 31.355504 36.808635 36.808635 54.531311l8.179697 24.53909 4.089848 8.179697c5.453131 9.542979 5.453131 20.449242 0 29.992221l-65.437573 113.15247H246.159859c10.906262 0 20.449242 5.453131 25.902373 13.632828l36.808635 55.894594 55.894593-96.793077c8.179697-13.632828 23.175807-19.085959 38.171918-13.632828 13.632828 5.453131 29.992221 6.816414 42.261766 2.726566l24.53909-6.816414c17.722676-5.453131 47.714897-5.453131 65.437573 0l24.53909 6.816414c10.906262 2.726566 27.265655 2.726566 40.898483-2.726566 2.726566 1.363283 5.453131 1.363283 9.54298 1.363283z" fill="#13227a" p-id="2090" data-spm-anchor-id="a313x.search_index.0.i6.41413a81Pz1Mgr" class=""></path><path d="M502.457021 740.262546c-158.140802 0-287.652665-128.148581-287.652666-287.652665s128.148581-287.652665 287.652666-287.652665 287.652665 128.148581 287.652665 287.652665-129.511864 287.652665-287.652665 287.652665z m0-512.594323c-124.058732 0-226.304941 100.882925-226.304941 226.304941s100.882925 226.304941 226.304941 226.30494 226.304941-100.882925 226.30494-226.30494-102.246208-226.304941-226.30494-226.304941z" fill="#fe8f05" p-id="2091" data-spm-anchor-id="a313x.search_index.0.i5.41413a81Pz1Mgr" class="selected"></path><path d="M558.351614 583.485027c-6.816414 0-13.632828-1.363283-20.449241-5.453131L502.457021 558.945937l-35.445353 19.085959c-14.996111 8.179697-32.718787 6.816414-46.351614-2.726565s-20.449242-25.902373-17.722676-42.261766l6.816414-39.535201-28.628938-29.992221c-12.269545-12.269545-16.359393-28.628938-10.906263-44.988331 5.453131-16.359393 19.085959-27.265655 35.445353-29.992221l40.898483-5.453131 17.722676-36.808635c6.816414-14.996111 21.812524-24.53909 39.5352-24.53909 16.359393 0 31.355504 9.542979 39.535201 24.53909l17.722676 36.808635 40.898483 5.453131c16.359393 2.726566 29.992221 13.632828 35.445352 29.992221 5.453131 16.359393 1.363283 32.718787-10.906262 44.988331l-28.628938 28.628939 6.816414 39.5352c2.726566 16.359393-4.089848 32.718787-17.722676 42.261766-10.906262 6.816414-20.449242 9.542979-28.628939 9.542979z m-126.785298-144.507974l19.085959 19.085959c10.906262 9.542979 14.996111 24.53909 12.269545 38.171918l-4.089848 25.902373 23.175807-12.269545c12.269545-6.816414 27.265655-6.816414 40.898483 0l23.175807 12.269545-4.089848-25.902373c-2.726566-13.632828 2.726566-28.628938 12.269545-38.171918l19.085959-19.085959-27.265656-2.726565c-13.632828-2.726566-25.902373-10.906262-32.718786-23.175807l-12.269545-23.175808-12.269545 23.175808c-6.816414 12.269545-19.085959 21.812524-32.718787 23.175807l-24.53909 2.726565z" fill="#f70a52" p-id="2092" data-spm-anchor-id="a313x.search_index.0.i8.41413a81Pz1Mgr" class="selected"></path></svg>