<?xml version="1.0" standalone="no"?><!DOCTYPE svg PUBLIC "-//W3C//DTD SVG 1.1//EN" "http://www.w3.org/Graphics/SVG/1.1/DTD/svg11.dtd"><svg t="1710159340952" class="icon" viewBox="0 0 1024 1024" version="1.1" xmlns="http://www.w3.org/2000/svg" p-id="7787" xmlns:xlink="http://www.w3.org/1999/xlink" width="200" height="200"><path d="M859.15 278.19H721.67c17.647-22.4 28.177-50.646 28.177-81.307 0-72.583-59.043-131.631-131.627-131.631-43.568 0-82.246 21.275-106.219 53.976-23.973-32.701-62.654-53.976-106.217-53.976-72.583 0-131.631 59.048-131.631 131.63 0 30.662 10.536 58.907 28.18 81.307H164.849c-46.94 0-85.13 38.19-85.13 85.13v105.877c0 38.56 25.78 71.195 61.007 81.628v291.028c0 45.797 37.257 83.055 83.054 83.055h278.3c3.05 1.293 6.398 2.01 9.919 2.01s6.869-0.717 9.919-2.01h278.298c45.8 0 83.054-37.254 83.054-83.055V550.824c35.228-10.433 61.009-43.068 61.009-81.628V363.32c0-46.94-38.188-85.13-85.13-85.13zM618.214 116.082c44.557 0 80.803 36.247 80.803 80.8 0 44.527-36.206 80.758-80.718 80.8h-80.887l0.005-80.707c0-0.063 0-0.135-0.005-0.208 0.065-44.5 36.288-80.685 80.802-80.685z m-212.43 0c44.532 0 80.764 36.212 80.799 80.736v80.864h-80.955c-44.483-0.083-80.645-36.3-80.645-80.8 0.002-44.553 36.247-80.8 80.8-80.8zM130.552 469.198V363.322c0-18.865 15.436-34.298 34.299-34.298h321.732v174.47h-321.73c-18.865 0-34.3-15.433-34.3-34.296z m61.007 372.654V554.328h295.024v319.744H223.78c-17.766 0-32.22-14.45-32.22-32.22z m608.66 32.22H537.418V554.328H832.44v287.524c0 17.77-14.45 32.22-32.219 32.22z m93.229-404.874c0 18.863-15.436 34.297-34.3 34.297H537.42V329.022h321.73c18.864 0 34.3 15.434 34.3 34.298v105.878z" fill="#545E68" p-id="7788"></path></svg>