<svg t="1710157028288" class="icon" viewBox="0 0 1024 1024" version="1.1" xmlns="http://www.w3.org/2000/svg" p-id="6739" id="mx_n_1710157028289" width="200" height="200"><path d="M651.328 534.336A256 256 0 0 0 512 63.872a256 256 0 0 0-139.328 470.464 448 448 0 0 0-308.8 425.792h896a448 448 0 0 0-308.544-425.792z m-331.392-214.4a192 192 0 0 1 192-192 192 192 0 0 1 0 384 192 192 0 0 1-192.064-192z m192 576H133.44A384.448 384.448 0 0 1 454.016 581.12l24.576 40.448-30.464 148.544 64 61.824 64-61.824-30.4-148.544 24.448-40.192h0.384a384.448 384.448 0 0 1 320.32 314.752z" p-id="6740" fill="#545E68"></path></svg>