<?xml version="1.0" standalone="no"?><!DOCTYPE svg PUBLIC "-//W3C//DTD SVG 1.1//EN" "http://www.w3.org/Graphics/SVG/1.1/DTD/svg11.dtd"><svg t="1710156593114" class="icon" viewBox="0 0 1024 1024" version="1.1" xmlns="http://www.w3.org/2000/svg" p-id="5268" xmlns:xlink="http://www.w3.org/1999/xlink" width="200" height="200"><path d="M938.666667 944.355556H85.333333c-34.133333 0-56.888889-19.911111-56.888889-56.888889v-739.555556c0-25.6 19.911111-56.888889 56.888889-56.888889h142.222223v-56.888889h56.888888v56.888889h455.111112v-56.888889h56.888888v56.888889h142.222223c36.977778 0 56.888889 22.755556 56.888889 56.888889v739.555556c0 36.977778-17.066667 56.888889-56.888889 56.888889z m0-796.444445h-142.222223v85.333333h-56.888888v-85.333333H284.444444v85.333333H227.555556v-85.333333H85.333333v142.222222h853.333334v-142.222222z m0 199.111111H85.333333v540.444445h853.333334v-540.444445z m-682.666667 199.111111l2.844444-56.888889H369.777778v56.888889H256z m199.111111 0v-56.888889h113.777778v56.888889h-113.777778z m199.111111 0v-56.888889h110.933334l2.844444 56.888889h-113.777778z m-395.377778 170.666667l-2.844444-56.888889h113.777778v56.888889H258.844444z m196.266667 0v-56.888889h113.777778v56.888889h-113.777778z m310.044445 0H654.222222v-56.888889h113.777778l-2.844444 56.888889z" fill="#545E68" p-id="5269"></path></svg>