<svg t="1710074706350" class="icon" viewBox="0 0 1210 1024" version="1.1" xmlns="http://www.w3.org/2000/svg" p-id="9879" width="200" height="200"><path d="M460.8 833.163636s-9.309091 9.309091-41.890909 60.509091c-18.618182 32.581818-13.963636 65.163636 4.654545 83.781818 13.963636 13.963636 37.236364 18.618182 55.854546 18.618182h251.345454c18.618182 0 37.236364-4.654545 55.854546-18.618182 18.618182-13.963636 23.272727-51.2 4.654545-83.781818-32.581818-51.2-41.890909-60.509091-41.890909-60.509091" fill="#93D3E9" p-id="9880"></path><path d="M456.145455 828.509091c-13.963636 9.309091-23.272727 27.927273-27.927273 37.236364-13.963636 18.618182-23.272727 37.236364-27.927273 55.854545 0 18.618182 0 32.581818 9.309091 46.545455 18.618182 23.272727 46.545455 27.927273 74.472727 27.927272h228.072728c23.272727 0 46.545455 0 65.163636-13.963636 13.963636-9.309091 27.927273-23.272727 27.927273-41.890909 4.654545-23.272727-4.654545-41.890909-18.618182-65.163637l-27.927273-41.890909c-4.654545-4.654545-4.654545-9.309091-9.309091-9.309091-4.654545-4.654545-18.618182 4.654545-9.309091 9.309091 9.309091 9.309091 18.618182 23.272727 23.272728 32.581819 9.309091 18.618182 23.272727 32.581818 27.927272 55.854545 4.654545 18.618182 0 37.236364-18.618182 46.545455-18.618182 13.963636-41.890909 13.963636-65.163636 13.963636H465.454545c-18.618182-4.654545-41.890909-18.618182-46.545454-37.236364-4.654545-23.272727 4.654545-46.545455 18.618182-65.163636 9.309091-13.963636 18.618182-32.581818 32.581818-41.890909 4.654545-4.654545-4.654545-13.963636-13.963636-9.309091" fill="#1B1364" p-id="9881"></path><path d="M716.8 865.745455s186.181818 27.927273 395.636364-269.963637c186.181818-269.963636 51.2-395.636364-55.854546-423.563636-27.927273-4.654545-55.854545-9.309091-83.781818 0-9.309091 4.654545 9.309091-69.818182-83.781818-102.4-93.090909-37.236364-134.981818 37.236364-144.290909 32.581818-13.963636-4.654545-27.927273-88.436364-134.981818-88.436364H605.090909c-102.4 0-121.018182 88.436364-134.981818 88.436364-13.963636 0-41.890909-79.127273-153.6-32.581818-93.090909 37.236364-69.818182 102.4-79.127273 102.4-27.927273-9.309091-55.854545-4.654545-83.781818 0C46.545455 195.490909-88.436364 325.818182 97.745455 595.781818c209.454545 297.890909 395.636364 269.963636 395.636363 269.963637" fill="#92D3E9" p-id="9882"></path><path d="M716.8 870.865455c13.963636 4.654545 32.581818 0 46.545455 0 41.890909-4.654545 79.127273-23.272727 116.363636-41.89091 60.509091-32.581818 116.363636-83.781818 162.909091-134.981818 60.509091-69.818182 121.018182-148.945455 148.945454-237.381818 18.618182-55.854545 23.272727-116.363636 0-172.218182-18.618182-41.890909-51.2-74.472727-88.436363-93.090909-18.618182-9.309091-41.890909-18.618182-65.163637-23.272727-9.309091 0-18.618182-4.654545-32.581818-4.654546-9.309091 0-27.927273 0-37.236363 4.654546h4.654545c4.654545 0 0 0 0 0v-9.309091c-9.309091-60.509091-65.163636-102.4-125.672727-107.054545-27.927273 0-55.854545 9.309091-79.127273 23.272727-9.309091 4.654545-13.963636 9.309091-23.272727 18.618182 0-4.654545-4.654545 0 0 0-9.309091-13.963636-18.618182-32.581818-27.927273-46.545455-18.618182-23.272727-41.890909-37.236364-69.818182-41.890909-32.581818-4.654545-69.818182-4.654545-97.745454 9.309091-23.272727 9.309091-46.545455 27.927273-60.509091 46.545454-4.654545 9.309091-9.309091 13.963636-13.963637 23.272728 0 4.654545-4.654545 4.654545-4.654545 9.309091-4.654545 4.654545 0 0 0 0-9.309091-4.654545-9.309091-9.309091-13.963636-9.309091-4.654545-9.309091-13.963636-13.963636-18.618182-18.618182-23.272727-13.963636-46.545455-18.618182-74.472728-18.618182-37.236364 4.654545-74.472727 23.272727-97.745454 51.2-18.618182 13.963636-27.927273 37.236364-27.927273 55.854546V168.029091s4.654545-4.654545 4.654546 0c4.654545 0 4.654545 0 0 0h-4.654546c-23.272727-4.654545-46.545455-4.654545-69.818182 0-51.2 4.654545-88.436364 23.272727-116.363636 55.854545-32.581818 37.236364-51.2 83.781818-51.2 134.981819 0 79.127273 37.236364 153.6 79.127273 214.10909 46.545455 74.472727 107.054545 148.945455 176.872727 204.8 60.509091 51.2 144.290909 97.745455 228.072727 97.745455h13.963637c9.309091 0 4.654545-13.963636-4.654546-13.963636 4.654545 0 0 0 0 0H451.490909c-41.890909-4.654545-79.127273-23.272727-116.363636-41.890909-60.509091-32.581818-116.363636-83.781818-162.909091-134.981819-60.509091-69.818182-116.363636-148.945455-144.290909-232.727272-18.618182-60.509091-23.272727-121.018182 4.654545-176.872728 18.618182-37.236364 51.2-69.818182 88.436364-83.781818 23.272727-13.963636 55.854545-18.618182 79.127273-18.618182 13.963636 0 23.272727 4.654545 37.236363 4.654546h9.309091c4.654545-4.654545 4.654545-9.309091 4.654546-13.963637 0-23.272727 9.309091-46.545455 23.272727-60.50909 27.927273-27.927273 69.818182-41.890909 107.054545-41.89091 23.272727 0 41.890909 9.309091 60.509091 27.927273 4.654545 4.654545 18.618182 18.618182 27.927273 18.618182 9.309091-4.654545 18.618182-23.272727 23.272727-32.581818 13.963636-18.618182 32.581818-37.236364 55.854546-46.545455 27.927273-13.963636 65.163636-13.963636 97.745454-4.654545 27.927273 4.654545 46.545455 23.272727 65.163637 41.890909 9.309091 9.309091 13.963636 27.927273 23.272727 37.236364 9.309091 9.309091 23.272727-4.654545 27.927273-9.309091 18.618182-13.963636 41.890909-27.927273 69.818181-27.927273 37.236364 0 79.127273 13.963636 102.4 41.890909 13.963636 13.963636 23.272727 37.236364 23.272728 55.854545 0 4.654545 0 9.309091 4.654545 13.963637h9.309091c13.963636 0 27.927273-4.654545 37.236364-4.654546 46.545455 0 93.090909 23.272727 130.327272 55.854546 32.581818 32.581818 51.2 79.127273 55.854546 125.672727 0 74.472727-32.581818 148.945455-74.472727 209.454546-46.545455 74.472727-107.054545 144.290909-172.218182 200.145454-60.509091 51.2-139.636364 97.745455-223.418182 93.090909h-9.309091s-4.654545 0 0 0c-4.654545 0-9.309091 13.963636 0 13.963637" fill="#1B1364" p-id="9883"></path><path d="M940.218182 539.927273c-32.581818 55.854545-83.781818 121.018182-158.254546 186.181818" fill="#0C8DBF" p-id="9884"></path><path d="M930.909091 530.618182c-41.890909 69.818182-97.745455 130.327273-158.254546 181.527273-9.309091 9.309091 4.654545 23.272727 13.963637 13.963636 60.509091-55.854545 116.363636-116.363636 162.909091-186.181818 9.309091-9.309091-9.309091-18.618182-18.618182-9.309091" fill="#2E3192" p-id="9885"></path><path d="M269.963636 516.654545c32.581818 55.854545 83.781818 121.018182 158.254546 186.181819" fill="#0C8DBF" p-id="9886"></path><path d="M265.309091 521.309091c41.890909 69.818182 97.745455 134.981818 162.909091 186.181818 9.309091 9.309091 23.272727-4.654545 13.963636-13.963636C377.018182 642.327273 321.163636 581.818182 279.272727 512c-4.654545-13.963636-23.272727 0-13.963636 9.309091" fill="#2E3192" p-id="9887"></path><path d="M1005.381818 339.781818s0 51.2-27.927273 125.672727" fill="#0C8DBF" p-id="9888"></path><path d="M996.072727 339.781818c0 41.890909-13.963636 83.781818-27.927272 125.672727-4.654545 13.963636 13.963636 18.618182 18.618181 4.654546 13.963636-37.236364 32.581818-83.781818 27.927273-130.327273 0-13.963636-18.618182-13.963636-18.618182 0M200.145455 377.018182c9.309091 27.927273 23.272727 51.2 32.581818 79.127273 4.654545 13.963636 23.272727 0 18.618182-9.309091-9.309091-27.927273-23.272727-51.2-32.581819-74.472728 0-13.963636-23.272727-9.309091-18.618181 4.654546M591.127273 251.345455c-4.654545 74.472727-4.654545 153.6-4.654546 228.072727 0 74.472727 0 153.6 4.654546 228.072727 0 13.963636 18.618182 13.963636 18.618182 0 0-74.472727 0-153.6-4.654546-228.072727 0-74.472727 0-153.6 4.654546-228.072727 4.654545-13.963636-13.963636-13.963636-18.618182 0" fill="#2E3192" p-id="9889"></path><path d="M414.254545 940.218182s0 23.272727 27.927273 37.236363c13.963636 4.654545 32.581818 9.309091 60.509091 9.309091h223.418182s55.854545 4.654545 69.818182-32.581818c9.309091-37.236364 4.654545-41.890909-23.272728-88.436363-18.618182 4.654545-32.581818 0-41.890909 4.654545-4.654545 0 18.618182 23.272727 13.963637 60.509091-4.654545 32.581818-32.581818 41.890909-74.472728 41.890909-32.581818 0-134.981818 4.654545-200.145454-4.654545-32.581818-4.654545-51.2-13.963636-55.854546-27.927273M716.8 856.436364s41.890909 4.654545 93.090909-13.963637 158.254545-74.472727 251.345455-200.145454S1210.181818 418.909091 1186.909091 307.2c-18.618182-83.781818-79.127273-116.363636-134.981818-125.672727-46.545455-9.309091-69.818182 0-74.472728 0-9.309091 0 51.2 0 102.4 32.581818 41.890909 27.927273 60.509091 65.163636 65.163637 102.4 9.309091 116.363636-46.545455 260.654545-181.527273 386.327273-83.781818 79.127273-158.254545 111.709091-204.8 134.981818-18.618182 9.309091-37.236364 9.309091-41.890909 18.618182" fill="#29ABE2" p-id="9890"></path><path d="M51.2 418.909091c9.309091 46.545455 32.581818 88.436364 55.854545 130.327273 4.654545 9.309091 23.272727 0 18.618182-9.309091-23.272727-37.236364-46.545455-79.127273-51.2-125.672728-4.654545-13.963636-23.272727-9.309091-23.272727 4.654546M139.636364 591.127273l55.854545 69.818182c9.309091 9.309091 23.272727-4.654545 13.963636-13.963637-18.618182-18.618182-37.236364-41.890909-51.2-65.163636-9.309091-13.963636-27.927273-4.654545-18.618181 9.309091M460.8 898.327273c-9.309091 18.618182-4.654545 37.236364 9.309091 51.2 9.309091 9.309091 23.272727-4.654545 13.963636-13.963637-9.309091-4.654545-13.963636-18.618182-9.309091-27.927272 0-4.654545 0-9.309091-4.654545-13.963637 0 0-9.309091 0-9.309091 4.654546" fill="#FFFFFF" p-id="9891"></path></svg>