<svg t="1710217754245" class="icon" viewBox="0 0 1024 1024" version="1.1" xmlns="http://www.w3.org/2000/svg" p-id="8555" id="mx_n_1710217754245" width="200" height="200"><path d="M993.900544 434.517333C954.988544 188.757333 1036.225877-27.989333 839.617877 3.072s-323.242667 255.317333-13.312 458.069333c9.216 58.026667 54.272 98.986667 100.352 91.477334s75.434667-60.074667 67.242667-118.101334z" fill="#FF7400" p-id="8556"></path><path d="M915.052544 571.392a95.573333 95.573333 0 0 1-64.853333-26.282667 136.533333 136.533333 0 0 1-41.301334-80.554666c-10.581333-68.266667 25.258667-129.024 81.237334-136.533334s109.226667 38.912 119.808 105.813334a141.312 141.312 0 0 1-14.336 89.429333 94.208 94.208 0 0 1-68.266667 48.469333h-13.653333z m-19.797333-211.285333c-36.864 5.802667-60.757333 49.834667-52.906667 98.986666a102.4 102.4 0 0 0 31.402667 60.416 60.757333 60.757333 0 0 0 49.493333 17.408 59.392 59.392 0 0 0 41.984-32.085333 102.4 102.4 0 0 0 11.264-68.266667c-8.533333-47.786667-42.666667-82.261333-81.237333-76.458666z" fill="#333333" p-id="8557"></path><path d="M259.009877 791.210667l34.133334 213.333333L387.692544 989.866667l21.162667-222.208z" fill="#FF7400" p-id="8558"></path><path d="M278.465877 1024l-38.912-247.125333 189.781334-30.037334-24.576 257.024-126.293334 20.138667z m0-218.794667l28.330667 179.882667 68.266667-10.581333 17.066666-187.392z" fill="#333333" p-id="8559"></path><path d="M169.239211 327.338667a17.408 17.408 0 0 0-13.994667 19.456l68.266667 435.882666a18.090667 18.090667 0 0 0 19.456 14.336l422.570666-68.266666a38.912 38.912 0 0 1 20.821334 0L933.825877 797.354667a15.36 15.36 0 0 0 6.826667 0 17.408 17.408 0 0 0 14.336-19.456l-102.4-652.629334a11.605333 11.605333 0 0 0-2.389333-6.485333 16.725333 16.725333 0 0 0-23.552-5.461333L611.265877 252.586667a43.349333 43.349333 0 0 1-19.456 7.850666L169.239211 327.338667z" fill="#FFB900" p-id="8560"></path><path d="M939.969877 815.104a19.797333 19.797333 0 0 1-8.192 0l-247.808-66.218667a27.648 27.648 0 0 0-13.994666 0l-422.570667 68.266667a30.72 30.72 0 0 1-24.917333-6.144 34.133333 34.133333 0 0 1-13.653334-21.845333l-68.266666-436.224a30.72 30.72 0 0 1 6.485333-24.917334 34.133333 34.133333 0 0 1 21.845333-13.994666l422.570667-68.266667a29.354667 29.354667 0 0 0 11.946667-6.826667l214.016-139.264a39.594667 39.594667 0 0 1 25.258666-5.12 37.546667 37.546667 0 0 1 21.845334 14.677334 28.672 28.672 0 0 1 5.461333 12.970666l102.4 652.970667a34.133333 34.133333 0 0 1-27.989333 38.912 18.432 18.432 0 0 1-5.461334 2.048z m-264.874666-102.4a102.4 102.4 0 0 1 17.408 2.048l247.808 66.218667-102.4-652.970667-217.429334 139.264a75.434667 75.434667 0 0 1-25.941333 9.898667l-422.570667 68.266666 68.266667 436.224 422.912-68.266666a53.589333 53.589333 0 0 1 11.264 0z" fill="#333333" p-id="8561"></path><path d="M213.271211 720.213333l-50.176-316.074666-119.466667 18.773333A17.749333 17.749333 0 0 0 29.292544 443.733333l45.056 282.965334a17.408 17.408 0 0 0 19.456 13.994666l119.466667-19.114666z" fill="#FF7400" p-id="8562"></path><path d="M90.732544 757.077333a38.570667 38.570667 0 0 1-19.456-6.144 34.133333 34.133333 0 0 1-13.653333-23.210666L12.225877 443.733333a34.133333 34.133333 0 0 1 28.672-37.546666l136.533334-21.504 55.296 349.866666-136.533334 21.504zM148.759211 423.253333l-102.4 16.384 44.714666 282.965334 102.4-16.384zM421.825877 900.778667a79.189333 79.189333 0 0 1-16.042666-2.048l9.557333-32.426667a43.690667 43.690667 0 0 0 23.893333-81.92l9.557334-32.426667a73.386667 73.386667 0 0 1 44.714666 92.842667 82.261333 82.261333 0 0 1-71.68 55.978667z" fill="#333333" p-id="8563"></path></svg>